<svg width="48" height="48" viewBox="0 0 48 48" fill="none" xmlns="http://www.w3.org/2000/svg">
    <path fill-rule="evenodd" clip-rule="evenodd" d="M32.2942 28.4933C33.4652 26.6334 34.1425 24.4314 34.1425 22.0712C34.1425 15.4045 28.738 10 22.0713 10C15.4045 10 10 15.4045 10 22.0712C10 28.738 15.4045 34.1425 22.0713 34.1425C24.4314 34.1425 26.6334 33.4652 28.4933 32.2943C28.6272 32.4553 28.7604 32.616 28.8934 32.7764L28.917 32.8049C29.8451 33.9247 30.7591 35.0274 31.7752 36.1151C32.7792 37.1901 34.2988 37.3234 35.3619 36.3067C35.5109 36.1643 35.6699 36.0089 35.8394 35.8394C36.0088 35.6698 36.1643 35.5109 36.3067 35.3619C37.3234 34.2988 37.1901 32.7792 36.1151 31.7751C35.0274 30.7592 33.9246 29.8451 32.8049 28.917L32.7067 28.8356C32.5695 28.7218 32.432 28.6078 32.2942 28.4933ZM22 14.5C17.8579 14.5 14.5 17.8579 14.5 22C14.5 26.1421 17.8579 29.5 22 29.5C26.1421 29.5 29.5 26.1421 29.5 22C29.5 17.8579 26.1421 14.5 22 14.5Z" fill="#0017FC"/>
    <path d="M13.9237 1.50112C15.3038 1.45914 16.4566 2.54388 16.4986 3.92394C16.5405 5.30401 15.4558 6.45682 14.0757 6.4988L7.76502 6.69076C7.1834 6.73738 6.7375 7.18331 6.69085 7.76473L6.49861 14.076C6.45658 15.4561 5.30373 16.5408 3.92366 16.4988C2.5436 16.4567 1.4589 15.3039 1.50094 13.9238L1.69457 7.56703C1.6953 7.54314 1.69636 7.51926 1.69778 7.4954C1.8832 4.36333 4.36424 1.8828 7.49613 1.69767C7.51995 1.69626 7.54379 1.69519 7.56764 1.69447L13.9237 1.50112Z" fill="#1778EA" fill-opacity="0.1"/>
    <path d="M41.5012 33.9236C41.5432 32.5435 42.6961 31.4588 44.0761 31.5009C45.4561 31.5429 46.5408 32.6958 46.4988 34.0758L46.3051 40.4326C46.3044 40.4565 46.3033 40.4804 46.3019 40.5043C46.1165 43.6363 43.6356 46.1168 40.5037 46.3019C40.4798 46.3033 40.456 46.3044 40.4321 46.3051L34.076 46.4985C32.696 46.5404 31.5432 45.4558 31.5012 44.0757C31.4592 42.6957 32.5439 41.5429 33.924 41.5009L40.2348 41.3089C40.8164 41.2623 41.2623 40.8164 41.3089 40.235L41.5012 33.9236Z" fill="#1778EA" fill-opacity="0.1"/>
    <path d="M34.0761 1.50112C32.696 1.45914 31.5432 2.54388 31.5012 3.92394C31.4592 5.30401 32.544 6.45682 33.9241 6.4988L40.2348 6.69076C40.8164 6.73738 41.2623 7.18331 41.309 7.76473L41.5012 14.076C41.5433 15.4561 42.6961 16.5408 44.0762 16.4988C45.4562 16.4567 46.5408 15.3039 46.4988 13.9238L46.3053 7.56703C46.3046 7.54314 46.3034 7.51926 46.302 7.4954C46.1165 4.36333 43.6356 1.8828 40.5037 1.69767C40.4799 1.69626 40.456 1.69519 40.4322 1.69447L34.0761 1.50112Z" fill="#1778EA" fill-opacity="0.1"/>
    <path d="M6.49861 33.9236C6.45657 32.5435 5.30372 31.4588 3.92365 31.5009C2.54359 31.5429 1.4589 32.6958 1.50094 34.0758L1.69456 40.4326C1.69529 40.4565 1.69636 40.4804 1.69777 40.5043C1.8832 43.6363 4.36423 46.1168 7.49613 46.3019C7.51995 46.3033 7.54379 46.3044 7.56764 46.3051L13.9238 46.4985C15.3038 46.5404 16.4566 45.4558 16.4986 44.0757C16.5406 42.6957 15.4559 41.5429 14.0758 41.5009L7.76501 41.3089C7.18341 41.2623 6.73752 40.8164 6.69085 40.235L6.49861 33.9236Z" fill="#1778EA" fill-opacity="0.1"/>
</svg>
