<svg width="89" height="30" viewBox="0 0 89 30" fill="none" xmlns="http://www.w3.org/2000/svg">
<g clip-path="url(#clip0_897_7476)">
<path d="M39.7567 11.7262C39.6822 11.66 39.589 11.6182 39.4899 11.6066C39.3907 11.5949 39.2903 11.6139 39.2024 11.6609C38.5573 12.0028 37.8369 12.1796 37.106 12.1755C34.6288 12.1755 32.8506 10.3384 32.8506 8.0444C32.8506 5.77369 34.6514 3.91406 37.1294 3.91406C39.6073 3.91406 41.3848 5.75119 41.3848 8.0444C41.3859 8.72724 41.214 9.39935 40.8848 9.99855C40.8291 10.0967 40.8094 10.211 40.8291 10.322C40.8487 10.4329 40.9066 10.5337 40.9926 10.6069L41.1178 10.7127C41.1675 10.7545 41.2082 10.8058 41.2375 10.8636C41.2669 10.9214 41.2842 10.9845 41.2886 11.049C41.293 11.1136 41.2842 11.1784 41.2629 11.2396C41.2416 11.3007 41.2082 11.357 41.1646 11.4051L40.7 11.9189C40.6574 11.9662 40.6059 12.0047 40.5483 12.0321C40.4908 12.0595 40.4283 12.0754 40.3646 12.0788C40.3009 12.0822 40.2371 12.0731 40.1769 12.052C40.1167 12.0309 40.0613 11.9981 40.0138 11.9557L39.7567 11.7262ZM37.8096 10.0211L37.2523 9.55221C37.203 9.5104 37.1626 9.45922 37.1335 9.40167C37.1043 9.34412 37.087 9.28136 37.0826 9.21708C37.0782 9.15279 37.0867 9.08827 37.1077 9.02731C37.1287 8.96635 37.1617 8.91017 37.2048 8.86207L37.6723 8.33696C37.715 8.28933 37.7668 8.25058 37.8246 8.22294C37.8824 8.19529 37.9452 8.1793 38.0093 8.17589C38.0733 8.17247 38.1374 8.1817 38.1979 8.20303C38.2584 8.22437 38.314 8.25739 38.3616 8.3002L39.0011 8.87557C39.0377 8.9082 39.0823 8.93067 39.1305 8.94073C39.1786 8.95079 39.2285 8.94809 39.2753 8.93289C39.322 8.91769 39.3639 8.89054 39.3968 8.85414C39.4297 8.81775 39.4524 8.7734 39.4626 8.72554C39.5137 8.50031 39.539 8.27005 39.538 8.03915C39.538 6.67012 38.529 5.52914 37.106 5.52914C35.683 5.52914 34.6974 6.64762 34.6974 8.03915C34.6974 9.40893 35.7071 10.5499 37.1294 10.5499C37.3189 10.5504 37.508 10.5308 37.6934 10.4914C37.742 10.4793 37.7864 10.4543 37.8218 10.419C37.8571 10.3837 37.8821 10.3395 37.8941 10.2911C37.906 10.2427 37.9045 10.1919 37.8896 10.1444C37.8747 10.0968 37.847 10.0541 37.8096 10.0211Z" fill="#0017FC"/>
<path d="M56.1942 21.6854C56.1199 21.619 56.0267 21.5771 55.9275 21.5655C55.8283 21.5538 55.7279 21.5729 55.64 21.6201C54.9943 21.9624 54.273 22.1393 53.5413 22.1347C51.0633 22.1347 49.2852 20.2976 49.2852 18.0036C49.2852 15.7329 51.086 13.8733 53.5639 13.8733C56.0419 13.8733 57.8193 15.7104 57.8193 18.0036C57.8209 18.6865 57.6489 19.3587 57.3194 19.9578C57.264 20.056 57.2444 20.1702 57.2641 20.2811C57.2837 20.392 57.3414 20.4927 57.4272 20.5662L57.5524 20.6719C57.602 20.7137 57.6427 20.7649 57.672 20.8226C57.7013 20.8803 57.7187 20.9433 57.7232 21.0077C57.7276 21.0722 57.719 21.137 57.6978 21.1981C57.6766 21.2592 57.6433 21.3155 57.5999 21.3636L57.1346 21.8782C57.0921 21.9254 57.0406 21.9638 56.9831 21.9913C56.9256 22.0187 56.8632 22.0346 56.7995 22.038C56.7359 22.0414 56.6721 22.0323 56.612 22.0112C56.5519 21.9901 56.4965 21.9573 56.4491 21.9149L56.1942 21.6854ZM54.2472 19.9803L53.6921 19.5114C53.6427 19.4697 53.6022 19.4186 53.5729 19.3611C53.5436 19.3036 53.5262 19.2408 53.5217 19.1765C53.5172 19.1122 53.5257 19.0476 53.5467 18.9866C53.5677 18.9256 53.6007 18.8694 53.6439 18.8213L54.1114 18.2962C54.1541 18.2486 54.2059 18.2098 54.2637 18.1822C54.3215 18.1545 54.3843 18.1385 54.4484 18.1351C54.5124 18.1317 54.5765 18.1409 54.637 18.1623C54.6975 18.1836 54.7531 18.2166 54.8007 18.2594L55.4401 18.8348C55.4768 18.8674 55.5214 18.8899 55.5695 18.9C55.6177 18.91 55.6676 18.9073 55.7144 18.8921C55.7611 18.8769 55.803 18.8498 55.8359 18.8134C55.8688 18.777 55.8915 18.7326 55.9017 18.6848C55.9528 18.4595 55.9781 18.2293 55.9771 17.9984C55.9771 16.6294 54.9681 15.4884 53.5458 15.4884C52.1236 15.4884 51.135 16.6121 51.135 18.0036C51.135 19.3734 52.1447 20.5144 53.567 20.5144C53.7568 20.5148 53.9461 20.4952 54.1318 20.4559C54.1816 20.4446 54.2273 20.4197 54.2637 20.384C54.3001 20.3482 54.3258 20.3031 54.3377 20.2537C54.3497 20.2042 54.3476 20.1524 54.3316 20.1041C54.3156 20.0558 54.2864 20.0129 54.2472 19.9803Z" fill="#0017FC"/>
<path d="M42.7576 8.61552V4.53469C42.7575 4.47112 42.77 4.40816 42.7944 4.34941C42.8188 4.29067 42.8546 4.23729 42.8998 4.19234C42.945 4.14739 42.9987 4.11175 43.0577 4.08747C43.1168 4.06319 43.1801 4.05074 43.244 4.05084H44.0395C44.1683 4.05084 44.2919 4.10174 44.3829 4.19234C44.474 4.28294 44.5252 4.40582 44.5252 4.53394V8.56901C44.5252 9.86978 45.179 10.5434 46.2596 10.5434C47.3403 10.5434 47.9941 9.89303 47.9941 8.62602V4.53469C47.9939 4.40721 48.0443 4.28482 48.1344 4.19419C48.2246 4.10355 48.347 4.05203 48.4752 4.05084H49.2692C49.3331 4.05074 49.3963 4.06317 49.4553 4.0874C49.5143 4.11163 49.568 4.1472 49.6131 4.19207C49.6583 4.23694 49.6942 4.29023 49.7186 4.34889C49.7431 4.40755 49.7556 4.47044 49.7556 4.53394V8.55776C49.7556 10.977 48.39 12.1637 46.234 12.1637C44.078 12.1637 42.7576 10.9665 42.7576 8.61552Z" fill="#0017FC"/>
<path d="M52.1143 4.0508H57.1985C57.2627 4.05021 57.3264 4.06229 57.3859 4.08635C57.4454 4.1104 57.4995 4.14596 57.5451 4.19096C57.5907 4.23596 57.6268 4.28951 57.6515 4.3485C57.6761 4.40749 57.6888 4.47077 57.6887 4.53465V5.13477C57.6887 5.19828 57.6761 5.26116 57.6516 5.31982C57.6272 5.37848 57.5913 5.43177 57.5461 5.47664C57.501 5.52151 57.4473 5.55708 57.3883 5.58131C57.3293 5.60555 57.2661 5.61797 57.2023 5.61787H53.8691C53.8053 5.61787 53.7421 5.63039 53.6831 5.65472C53.6241 5.67904 53.5706 5.71469 53.5255 5.75963C53.4803 5.80457 53.4446 5.85792 53.4202 5.91661C53.3959 5.97531 53.3834 6.03821 53.3835 6.10172V6.75135C53.3835 6.87948 53.4346 7.00235 53.5257 7.09295C53.6168 7.18355 53.7403 7.23445 53.8691 7.23445H56.6827C56.7465 7.23445 56.8097 7.24697 56.8687 7.27129C56.9277 7.29562 56.9812 7.33127 57.0263 7.37621C57.0715 7.42115 57.1072 7.47449 57.1316 7.53319C57.1559 7.59189 57.1684 7.65479 57.1683 7.7183V8.31842C57.1683 8.38186 57.1558 8.44468 57.1314 8.50329C57.107 8.5619 57.0712 8.61516 57.0261 8.66002C56.981 8.70488 56.9275 8.74047 56.8685 8.76474C56.8096 8.78902 56.7465 8.80152 56.6827 8.80152H53.8691C53.8053 8.80152 53.7421 8.81404 53.6831 8.83836C53.6241 8.86269 53.5706 8.89834 53.5255 8.94328C53.4803 8.98822 53.4446 9.04156 53.4202 9.10026C53.3959 9.15896 53.3834 9.22186 53.3835 9.28537V9.99576C53.3834 10.0593 53.3959 10.1222 53.4202 10.1809C53.4446 10.2396 53.4803 10.2929 53.5255 10.3378C53.5706 10.3828 53.6241 10.4184 53.6831 10.4428C53.7421 10.4671 53.8053 10.4796 53.8691 10.4796H57.2558C57.3196 10.4795 57.3829 10.4919 57.4419 10.5162C57.5009 10.5404 57.5545 10.576 57.5997 10.6208C57.6449 10.6657 57.6807 10.719 57.7052 10.7777C57.7296 10.8363 57.7422 10.8992 57.7422 10.9627V11.5523C57.7422 11.6158 57.7296 11.6787 57.7052 11.7374C57.6807 11.796 57.6449 11.8493 57.5997 11.8942C57.5545 11.9391 57.5009 11.9746 57.4419 11.9989C57.3829 12.0231 57.3196 12.0355 57.2558 12.0354H52.1143C52.0505 12.0355 51.9873 12.0231 51.9282 11.9989C51.8692 11.9746 51.8156 11.9391 51.7704 11.8942C51.7253 11.8493 51.6894 11.796 51.665 11.7374C51.6405 11.6787 51.6279 11.6158 51.6279 11.5523V4.53465C51.6278 4.47108 51.6403 4.40812 51.6648 4.34937C51.6892 4.29063 51.725 4.23725 51.7702 4.1923C51.8154 4.14735 51.869 4.11171 51.9281 4.08743C51.9871 4.06315 52.0504 4.0507 52.1143 4.0508Z" fill="#0017FC"/>
<path d="M59.3689 10.4969L59.7973 9.98682C59.875 9.89373 59.9851 9.83316 60.1057 9.81718C60.2263 9.80119 60.3485 9.83096 60.4481 9.90055C61.0664 10.3364 61.7232 10.6012 62.4932 10.6012C63.2156 10.6012 63.6515 10.3161 63.6515 9.82478C63.6515 9.37994 63.3762 9.14965 62.0339 8.80983C60.4171 8.40174 59.3727 7.95165 59.3727 6.34483C59.3727 4.89553 60.5431 3.93684 62.1832 3.93684C63.0923 3.9245 63.9855 4.17521 64.754 4.65848C64.8094 4.69334 64.8571 4.73895 64.8944 4.7926C64.9317 4.84625 64.9576 4.90683 64.9708 4.97071C64.984 5.03458 64.9841 5.10045 64.971 5.16435C64.958 5.22826 64.9321 5.28889 64.895 5.34262L64.5179 5.89098C64.4484 5.99158 64.3432 6.06223 64.2234 6.08868C64.1036 6.11513 63.9782 6.09541 63.8724 6.03351C63.2918 5.68919 62.7194 5.4889 62.1636 5.4889C61.4849 5.4889 61.1313 5.79721 61.1313 6.20755C61.1313 6.73265 61.4751 6.90369 62.8657 7.25776C64.4946 7.6801 65.4116 8.26146 65.4116 9.677C65.4116 11.2628 64.1959 12.1525 62.4638 12.1525C61.3891 12.1551 60.3406 11.8221 59.4662 11.2006C59.4113 11.1623 59.365 11.1132 59.3301 11.0562C59.2952 10.9993 59.2725 10.9359 59.2633 10.8698C59.2542 10.8038 59.2589 10.7366 59.277 10.6724C59.2952 10.6083 59.3265 10.5485 59.3689 10.4969Z" fill="#0017FC"/>
<path d="M68.0826 5.67192H66.6121C66.5483 5.67192 66.485 5.65941 66.426 5.63509C66.367 5.61078 66.3134 5.57514 66.2682 5.53021C66.223 5.48528 66.1872 5.43194 66.1628 5.37323C66.1383 5.31453 66.1257 5.25161 66.1257 5.18807V4.53469C66.1256 4.47112 66.1381 4.40816 66.1626 4.34941C66.187 4.29067 66.2228 4.23729 66.268 4.19234C66.3132 4.14739 66.3668 4.11175 66.4259 4.08747C66.4849 4.06319 66.5482 4.05074 66.6121 4.05084H72.2928C72.3566 4.05074 72.4199 4.06317 72.4789 4.0874C72.5379 4.11163 72.5915 4.1472 72.6367 4.19207C72.6819 4.23694 72.7177 4.29023 72.7421 4.34889C72.7666 4.40755 72.7792 4.47044 72.7792 4.53394V5.18732C72.7792 5.31565 72.7279 5.43872 72.6367 5.52946C72.5455 5.6202 72.4218 5.67117 72.2928 5.67117H70.8215C70.6927 5.67117 70.5692 5.72207 70.4781 5.81267C70.3871 5.90327 70.3359 6.02614 70.3359 6.15427V11.5554C70.3359 11.6189 70.3233 11.6818 70.2988 11.7404C70.2744 11.7991 70.2386 11.8524 70.1934 11.8972C70.1482 11.9421 70.0946 11.9777 70.0356 12.0019C69.9766 12.0261 69.9133 12.0386 69.8495 12.0385H69.0554C68.9916 12.0386 68.9284 12.0261 68.8693 12.0019C68.8103 11.9777 68.7567 11.9421 68.7115 11.8972C68.6664 11.8524 68.6305 11.7991 68.6061 11.7404C68.5816 11.6818 68.569 11.6189 68.569 11.5554V6.15427C68.5689 6.09083 68.5563 6.02803 68.5318 5.96945C68.5073 5.91088 68.4714 5.85768 68.4263 5.81289C68.3811 5.7681 68.3275 5.7326 68.2685 5.70841C68.2096 5.68422 68.1464 5.67182 68.0826 5.67192Z" fill="#0017FC"/>
<path d="M33.665 14.5026C33.665 14.4391 33.6776 14.3762 33.7021 14.3176C33.7265 14.2589 33.7624 14.2056 33.8075 14.1608C33.8527 14.1159 33.9063 14.0803 33.9654 14.0561C34.0244 14.0319 34.0876 14.0194 34.1514 14.0195H37.336C38.3563 14.0195 39.1459 14.3046 39.6737 14.8289C40.1209 15.2745 40.3615 15.9017 40.3615 16.6781C40.3615 17.7523 39.8758 18.4942 39.1232 18.9285C39.0651 18.9617 39.0144 19.0065 38.9745 19.0601C38.9345 19.1137 38.9061 19.1749 38.8911 19.2399C38.876 19.3049 38.8745 19.3722 38.8869 19.4378C38.8992 19.5034 38.925 19.5657 38.9626 19.6209L40.0825 21.2495C40.1325 21.3221 40.1616 21.4069 40.1667 21.4948C40.1718 21.5826 40.1526 21.6702 40.1113 21.748C40.07 21.8259 40.0081 21.891 39.9324 21.9364C39.8566 21.9818 39.7697 22.0058 39.6813 22.0057H38.7975C38.7182 22.0057 38.6401 21.9864 38.5701 21.9496C38.5 21.9127 38.4401 21.8593 38.3955 21.7941L36.9416 19.6622C36.897 19.5968 36.837 19.5432 36.7668 19.5062C36.6966 19.4692 36.6184 19.4499 36.5389 19.4499H35.9175C35.8537 19.4499 35.7905 19.4624 35.7315 19.4867C35.6726 19.5111 35.619 19.5467 35.5739 19.5916C35.5288 19.6366 35.493 19.6899 35.4687 19.7486C35.4443 19.8073 35.4318 19.8702 35.4319 19.9337V21.5226C35.4319 21.5861 35.4193 21.6489 35.3949 21.7076C35.3704 21.7663 35.3346 21.8196 35.2894 21.8644C35.2442 21.9093 35.1906 21.9449 35.1316 21.9691C35.0726 21.9933 35.0093 22.0058 34.9455 22.0057H34.1514C34.0876 22.0058 34.0244 21.9933 33.9654 21.9691C33.9063 21.9449 33.8527 21.9093 33.8075 21.8644C33.7624 21.8196 33.7265 21.7663 33.7021 21.7076C33.6776 21.6489 33.665 21.5861 33.665 21.5226V14.5026ZM37.2214 17.8986C38.0811 17.8986 38.5743 17.4425 38.5743 16.7463C38.5743 15.9962 38.0464 15.6054 37.1867 15.6054H35.9175C35.8537 15.6054 35.7905 15.6179 35.7315 15.6422C35.6726 15.6665 35.619 15.7022 35.5739 15.7471C35.5288 15.7921 35.493 15.8454 35.4687 15.9041C35.4443 15.9628 35.4318 16.0257 35.4319 16.0892V17.4155C35.4319 17.5436 35.4831 17.6665 35.5741 17.7571C35.6652 17.8477 35.7887 17.8986 35.9175 17.8986H37.2214Z" fill="#0017FC"/>
<path d="M42.4444 14.0195H47.5286C47.5924 14.0194 47.6556 14.0319 47.7146 14.0561C47.7737 14.0803 47.8273 14.1159 47.8725 14.1608C47.9176 14.2056 47.9535 14.2589 47.9779 14.3176C48.0024 14.3762 48.015 14.4391 48.015 14.5026V15.099C48.015 15.1625 48.0024 15.2254 47.9779 15.284C47.9535 15.3427 47.9176 15.396 47.8725 15.4409C47.8273 15.4857 47.7737 15.5213 47.7146 15.5455C47.6556 15.5698 47.5924 15.5822 47.5286 15.5821H44.1992C44.1354 15.5821 44.0721 15.5946 44.0132 15.6189C43.9542 15.6433 43.9006 15.6789 43.8555 15.7239C43.8104 15.7688 43.7747 15.8221 43.7503 15.8808C43.7259 15.9395 43.7135 16.0024 43.7136 16.0659V16.7193C43.7136 16.8475 43.7647 16.9703 43.8558 17.0609C43.9469 17.1515 44.0704 17.2024 44.1992 17.2024H47.0128C47.1418 17.2024 47.2655 17.2534 47.3567 17.3441C47.4479 17.4349 47.4992 17.558 47.4992 17.6863V18.2826C47.4992 18.3462 47.4866 18.409 47.4621 18.4677C47.4377 18.5264 47.4018 18.5796 47.3566 18.6245C47.3115 18.6694 47.2578 18.705 47.1988 18.7292C47.1398 18.7534 47.0766 18.7658 47.0128 18.7657H44.1992C44.1354 18.7657 44.0721 18.7783 44.0132 18.8026C43.9542 18.8269 43.9006 18.8626 43.8555 18.9075C43.8104 18.9524 43.7747 19.0058 43.7503 19.0645C43.7259 19.1232 43.7135 19.1861 43.7136 19.2496V19.96C43.7136 20.0881 43.7647 20.211 43.8558 20.3016C43.9469 20.3922 44.0704 20.4431 44.1992 20.4431H47.5836C47.6475 20.4431 47.7107 20.4556 47.7698 20.4799C47.8288 20.5042 47.8824 20.5399 47.9276 20.5848C47.9727 20.6297 48.0085 20.6831 48.033 20.7418C48.0574 20.8005 48.07 20.8634 48.07 20.9269V21.5233C48.07 21.5868 48.0574 21.6497 48.033 21.7084C48.0085 21.767 47.9727 21.8203 47.9275 21.8652C47.8823 21.91 47.8287 21.9456 47.7697 21.9698C47.7107 21.9941 47.6475 22.0065 47.5836 22.0064H42.4444C42.3806 22.0065 42.3173 21.9941 42.2583 21.9698C42.1993 21.9456 42.1457 21.91 42.1005 21.8652C42.0553 21.8203 42.0195 21.767 41.995 21.7084C41.9706 21.6497 41.958 21.5868 41.958 21.5233V14.5026C41.958 14.4391 41.9706 14.3762 41.995 14.3176C42.0195 14.2589 42.0553 14.2056 42.1005 14.1608C42.1457 14.1159 42.1993 14.0803 42.2583 14.0561C42.3173 14.0319 42.3806 14.0194 42.4444 14.0195Z" fill="#0017FC"/>
<path d="M59.2676 18.5835V14.5026C59.2676 14.3745 59.3187 14.2516 59.4098 14.161C59.5009 14.0704 59.6244 14.0195 59.7532 14.0195H60.5473C60.6111 14.0194 60.6744 14.0319 60.7334 14.0561C60.7924 14.0803 60.846 14.1159 60.8912 14.1608C60.9364 14.2056 60.9722 14.2589 60.9966 14.3176C61.0211 14.3762 61.0337 14.4391 61.0337 14.5026V18.5377C61.0337 19.8385 61.6875 20.5121 62.7681 20.5121C63.8488 20.5121 64.5026 19.8617 64.5026 18.5947V14.5026C64.5026 14.4391 64.5151 14.3762 64.5396 14.3176C64.5641 14.2589 64.5999 14.2056 64.6451 14.1608C64.6902 14.1159 64.7439 14.0803 64.8029 14.0561C64.8619 14.0319 64.9251 14.0194 64.989 14.0195H65.783C65.8469 14.0194 65.9101 14.0319 65.9691 14.0561C66.0281 14.0803 66.0817 14.1159 66.1269 14.1608C66.1721 14.2056 66.2079 14.2589 66.2324 14.3176C66.2568 14.3762 66.2694 14.4391 66.2694 14.5026V18.5287C66.2694 20.9479 64.9037 22.1347 62.7478 22.1347C60.5918 22.1347 59.2676 20.9344 59.2676 18.5835Z" fill="#0017FC"/>
<path d="M68.5518 14.0196H73.636C73.6998 14.0195 73.7631 14.0319 73.8221 14.0562C73.8811 14.0804 73.9347 14.116 73.9799 14.1608C74.0251 14.2057 74.0609 14.259 74.0853 14.3176C74.1098 14.3763 74.1224 14.4392 74.1224 14.5027V15.0991C74.1224 15.1626 74.1098 15.2254 74.0853 15.2841C74.0609 15.3428 74.0251 15.3961 73.9799 15.4409C73.9347 15.4858 73.8811 15.5214 73.8221 15.5456C73.7631 15.5698 73.6998 15.5823 73.636 15.5822H70.3066C70.2428 15.5822 70.1796 15.5947 70.1206 15.619C70.0616 15.6433 70.0081 15.679 69.963 15.7239C69.9179 15.7689 69.8821 15.8222 69.8577 15.8809C69.8334 15.9396 69.8209 16.0025 69.821 16.066V16.7194C69.821 16.7828 69.8335 16.8457 69.858 16.9043C69.8824 16.9629 69.9181 17.0161 69.9632 17.061C70.0083 17.1059 70.0619 17.1414 70.1208 17.1657C70.1797 17.19 70.2429 17.2025 70.3066 17.2025H73.1202C73.184 17.2025 73.2472 17.215 73.3062 17.2393C73.3652 17.2637 73.4187 17.2993 73.4639 17.3443C73.509 17.3892 73.5447 17.4425 73.5691 17.5012C73.5934 17.5599 73.6059 17.6228 73.6058 17.6863V18.2827C73.6058 18.4108 73.5547 18.5337 73.4636 18.6243C73.3725 18.7149 73.249 18.7658 73.1202 18.7658H70.3066C70.2428 18.7658 70.1796 18.7783 70.1206 18.8027C70.0616 18.827 70.0081 18.8626 69.963 18.9076C69.9179 18.9525 69.8821 19.0059 69.8577 19.0646C69.8334 19.1232 69.8209 19.1862 69.821 19.2497V19.96C69.821 20.0235 69.8335 20.0863 69.858 20.1449C69.8824 20.2035 69.9181 20.2568 69.9632 20.3017C70.0083 20.3465 70.0619 20.3821 70.1208 20.4064C70.1797 20.4307 70.2429 20.4431 70.3066 20.4431H73.6933C73.8223 20.4431 73.946 20.4941 74.0372 20.5849C74.1285 20.6756 74.1797 20.7987 74.1797 20.927V21.5234C74.1797 21.5869 74.1671 21.6498 74.1427 21.7084C74.1182 21.7671 74.0824 21.8204 74.0372 21.8652C73.992 21.9101 73.9384 21.9457 73.8794 21.9699C73.8204 21.9941 73.7571 22.0066 73.6933 22.0065H68.5518C68.488 22.0066 68.4248 21.9941 68.3657 21.9699C68.3067 21.9457 68.2531 21.9101 68.2079 21.8652C68.1628 21.8204 68.1269 21.7671 68.1025 21.7084C68.078 21.6498 68.0654 21.5869 68.0654 21.5234V14.5027C68.0654 14.4392 68.078 14.3763 68.1025 14.3176C68.1269 14.259 68.1628 14.2057 68.2079 14.1608C68.2531 14.116 68.3067 14.0804 68.3657 14.0562C68.4248 14.0319 68.488 14.0195 68.5518 14.0196Z" fill="#0017FC"/>
<path d="M75.5186 20.4648L75.9462 19.9547C76.0241 19.8616 76.1343 19.801 76.255 19.785C76.3758 19.769 76.4981 19.7988 76.5977 19.8684C77.2154 20.3043 77.8722 20.5691 78.6421 20.5691C79.3645 20.5691 79.8004 20.2833 79.8004 19.7927C79.8004 19.3478 79.5252 19.1175 78.1836 18.7777C76.5661 18.3666 75.5224 17.9218 75.5224 16.3127C75.5224 14.8634 76.692 13.9047 78.3322 13.9047C79.2413 13.8923 80.1344 14.143 80.9029 14.6264C80.9583 14.6612 81.006 14.7069 81.0433 14.7605C81.0806 14.8141 81.1066 14.8747 81.1198 14.9385C81.1331 15.0024 81.1332 15.0682 81.1203 15.1321C81.1074 15.196 81.0817 15.2567 81.0447 15.3105L80.6676 15.8589C80.598 15.9595 80.4926 16.0302 80.3727 16.0566C80.2528 16.0831 80.1272 16.0634 80.0214 16.0014C79.4407 15.6571 78.8691 15.4568 78.3126 15.4568C77.6339 15.4568 77.2802 15.7651 77.2802 16.1754C77.2802 16.7006 77.6241 16.8716 79.0146 17.2257C80.6435 17.648 81.5613 18.2294 81.5613 19.6449C81.5613 21.2307 80.3449 22.1204 78.6127 22.1204C77.538 22.123 76.4896 21.79 75.6151 21.1685C75.5603 21.1301 75.5141 21.081 75.4792 21.024C75.4444 20.9671 75.4217 20.9036 75.4127 20.8376C75.4036 20.7715 75.4083 20.7043 75.4266 20.6402C75.4448 20.5761 75.4761 20.5164 75.5186 20.4648Z" fill="#0017FC"/>
<path d="M84.3031 15.6399H82.8326C82.7686 15.6397 82.7052 15.627 82.6462 15.6024C82.5872 15.5778 82.5336 15.5419 82.4885 15.4966C82.4435 15.4514 82.4078 15.3978 82.3837 15.3388C82.3595 15.2799 82.3473 15.2167 82.3477 15.1531V14.4997C82.3477 14.4362 82.3603 14.3733 82.3847 14.3147C82.4092 14.256 82.445 14.2027 82.4902 14.1578C82.5353 14.113 82.589 14.0774 82.648 14.0532C82.707 14.0289 82.7702 14.0165 82.8341 14.0166H88.5147C88.5786 14.0165 88.6418 14.0289 88.7008 14.0532C88.7598 14.0774 88.8134 14.113 88.8586 14.1578C88.9038 14.2027 88.9396 14.256 88.9641 14.3147C88.9885 14.3733 89.0011 14.4362 89.0011 14.4997V15.1531C89.0011 15.2814 88.9499 15.4045 88.8587 15.4952C88.7674 15.586 88.6437 15.6369 88.5147 15.6369H87.0435C86.9147 15.6369 86.7911 15.6878 86.7001 15.7784C86.609 15.869 86.5578 15.9919 86.5578 16.12V21.5211C86.5578 21.5846 86.5452 21.6475 86.5208 21.7062C86.4963 21.7648 86.4605 21.8181 86.4153 21.863C86.3701 21.9079 86.3165 21.9434 86.2575 21.9677C86.1985 21.9919 86.1353 22.0043 86.0714 22.0042H85.2774C85.2135 22.0043 85.1503 21.9919 85.0913 21.9677C85.0323 21.9434 84.9786 21.9079 84.9335 21.863C84.8883 21.8181 84.8524 21.7648 84.828 21.7062C84.8035 21.6475 84.791 21.5846 84.791 21.5211V16.12C84.7902 15.992 84.7383 15.8696 84.6469 15.7796C84.5554 15.6896 84.4317 15.6393 84.3031 15.6399Z" fill="#0017FC"/>
<path d="M29.6166 28.088L21.7182 20.2286L22.286 19.4522C23.8221 17.3644 24.648 14.8432 24.6433 12.256C24.6411 5.49787 19.1143 0 12.3205 0C5.52682 0 0 5.49787 0 12.256C0 19.0141 5.52682 24.512 12.3205 24.512C14.844 24.5152 17.3066 23.7417 19.3706 22.2975L20.1466 21.7544L28.0647 29.631C28.2713 29.8326 28.5495 29.9449 28.8389 29.9435C29.1282 29.9422 29.4054 29.8272 29.61 29.6236C29.8146 29.4201 29.9302 29.1444 29.9316 28.8566C29.9329 28.5687 29.82 28.292 29.6174 28.0865L29.6166 28.088ZM20.2047 18.7261L15.6853 14.0826L16.4289 13.289C16.9458 12.7386 17.2897 12.05 17.4184 11.3077C17.547 10.5655 17.4547 9.80205 17.1529 9.11131C16.851 8.42056 16.3528 7.83265 15.7195 7.41989C15.0861 7.00714 14.3453 6.78755 13.5882 6.78813H10.1193C9.52209 6.78873 8.94951 7.02499 8.52721 7.44508C8.10491 7.86516 7.8674 8.43475 7.8668 9.02884V16.6294C7.86296 16.7752 7.88851 16.9203 7.94194 17.0561C7.99537 17.1919 8.07561 17.3157 8.17791 17.4201C8.28021 17.5246 8.40251 17.6076 8.53759 17.6643C8.67267 17.721 8.81779 17.7502 8.9644 17.7502C9.11101 17.7502 9.25614 17.721 9.39122 17.6643C9.52629 17.6076 9.64859 17.5246 9.75089 17.4201C9.85319 17.3157 9.93343 17.1919 9.98686 17.0561C10.0403 16.9203 10.0658 16.7752 10.062 16.6294V8.97182H13.5882C14.0323 8.96726 14.4604 9.13662 14.78 9.44335C15.0996 9.75007 15.2852 10.1695 15.2966 10.6112C15.3079 11.0528 15.1443 11.4812 14.8409 11.8038C14.5374 12.1265 14.1187 12.3174 13.6749 12.3355C13.6222 12.3274 13.5691 12.3232 13.5158 12.3228H12.1712C12.0247 12.3189 11.8788 12.3443 11.7423 12.3975C11.6058 12.4507 11.4813 12.5305 11.3763 12.6322C11.2713 12.734 11.1878 12.8557 11.1308 12.99C11.0738 13.1244 11.0445 13.2688 11.0445 13.4146C11.0445 13.5604 11.0738 13.7048 11.1308 13.8392C11.1878 13.9735 11.2713 14.0952 11.3763 14.197C11.4813 14.2987 11.6058 14.3786 11.7423 14.4317C11.8788 14.4849 12.0247 14.5103 12.1712 14.5064H12.7519C13.009 14.5064 13.227 14.7315 13.227 14.7315L18.6369 20.2541L17.361 20.9855C15.8278 21.8638 14.0898 22.3265 12.3205 22.3275C6.74017 22.3275 2.19519 17.8086 2.19519 12.2552C2.19519 6.70186 6.73791 2.18369 12.3205 2.18369C17.9032 2.18369 22.4459 6.70186 22.4459 12.256C22.4466 14.1116 21.9303 15.931 20.9543 17.5123L20.2047 18.7261Z" fill="#0017FC"/>
</g>
<defs>
<clipPath id="clip0_897_7476">
<rect width="89" height="30" fill="white"/>
</clipPath>
</defs>
</svg>
