<svg width="14" height="14" viewBox="0 0 14 14" fill="none" xmlns="http://www.w3.org/2000/svg">
<path fill-rule="evenodd" clip-rule="evenodd" d="M6.61111 0C6.39637 0 6.22222 0.174113 6.22222 0.388889V6.22222H0.388889C0.174113 6.22222 0 6.39637 0 6.61111V7.38889C0 7.60363 0.174113 7.77778 0.388889 7.77778H6.22222V13.6111C6.22222 13.8259 6.39637 14 6.61111 14H7.38889C7.60363 14 7.77778 13.8259 7.77778 13.6111V7.77778H13.6111C13.8259 7.77778 14 7.60363 14 7.38889V6.61111C14 6.39637 13.8259 6.22222 13.6111 6.22222H7.77778V0.388889C7.77778 0.174113 7.60363 0 7.38889 0H6.61111Z" fill="#21201F"/>
</svg>
