<svg width="49" height="48" viewBox="0 0 49 48" fill="none" xmlns="http://www.w3.org/2000/svg">
<path d="M24.4999 1.5C17.6813 1.5 13.0251 1.85523 10.1464 2.19108C7.25826 2.52802 5.05565 4.71734 4.72641 7.6164C4.37697 10.6933 4.00006 15.8905 4.00006 24C4.00006 32.1095 4.37697 37.3067 4.72641 40.3836C5.05565 43.2827 7.25825 45.472 10.1464 45.8089C13.0251 46.1448 17.6813 46.5 24.4999 46.5C31.3185 46.5 35.9747 46.1448 38.8535 45.8089C41.7416 45.472 43.9442 43.2827 44.2735 40.3836C44.6229 37.3067 44.9998 32.1095 44.9998 24C44.9998 20.9628 44.9469 18.3343 44.8625 16.073C44.8567 15.9184 44.827 15.7657 44.7746 15.6202C44.3162 14.3489 42.9141 11.4464 38.8519 7.48474C34.541 3.28068 31.4599 2.00453 30.3135 1.64802C30.1843 1.60783 30.0502 1.58532 29.915 1.58108C28.287 1.53011 26.4851 1.5 24.4999 1.5Z" fill="#1778EA" fill-opacity="0.1"/>
<path d="M44.8304 15.8153C42.2908 15.8142 37.9163 15.7741 35.4113 15.5338C32.6817 15.2719 30.535 13.0938 30.2676 10.3051C30.0463 7.99772 30.0023 4.14284 30.0003 1.58594C30.1065 1.59534 30.2115 1.61605 30.3135 1.64776C31.4599 2.00428 34.5411 3.28041 38.8519 7.48448C42.9141 11.4461 44.3162 14.3487 44.7746 15.6199C44.7976 15.6838 44.8163 15.7491 44.8304 15.8153Z" fill="#0017FC"/>
<path fill-rule="evenodd" clip-rule="evenodd" d="M20.5 35C20.5 36.1046 21.3954 37 22.5 37H33.5C34.6046 37 35.5 36.1046 35.5 35C35.5 33.8954 34.6046 33 33.5 33H22.5C21.3954 33 20.5 33.8954 20.5 35ZM22.5 28C21.3954 28 20.5 27.1046 20.5 26C20.5 24.8954 21.3954 24 22.5 24H29.5C30.6046 24 31.5 24.8954 31.5 26C31.5 27.1046 30.6046 28 29.5 28H22.5ZM13.5 35C13.5 36.1046 14.3954 37 15.5 37H16.5C17.6046 37 18.5 36.1046 18.5 35C18.5 33.8954 17.6046 33 16.5 33H15.5C14.3954 33 13.5 33.8954 13.5 35ZM15.5 28C14.3954 28 13.5 27.1046 13.5 26C13.5 24.8954 14.3954 24 15.5 24H16.5C17.6046 24 18.5 24.8954 18.5 26C18.5 27.1046 17.6046 28 16.5 28H15.5Z" fill="#0017FC"/>
</svg>
