<svg width="48" height="48" viewBox="0 0 48 48" fill="none" xmlns="http://www.w3.org/2000/svg">
    <path d="M23.9999 1.49994C17.1813 1.49994 12.5251 1.85517 9.64633 2.19102C6.7582 2.52796 4.55559 4.71728 4.22635 7.61634C3.87691 10.6932 3.5 15.8904 3.5 24C3.5 32.1095 3.87691 37.3067 4.22635 40.3836C4.55559 43.2826 6.75819 45.4719 9.64633 45.8088C12.5251 46.1447 17.1813 46.4999 23.9999 46.4999C30.8184 46.4999 35.4746 46.1447 38.3534 45.8088C41.2415 45.4719 43.4441 43.2826 43.7734 40.3836C44.1228 37.3067 44.4997 32.1095 44.4997 24C44.4997 20.9627 44.4468 18.3342 44.3624 16.0729C44.3566 15.9183 44.3269 15.7656 44.2745 15.6201C43.8161 14.3488 42.414 11.4463 38.3518 7.48468C34.0409 3.28061 30.9598 2.00447 29.8134 1.64796C29.6842 1.60777 29.5501 1.58526 29.4149 1.58102C27.7869 1.53005 25.9851 1.49994 23.9999 1.49994Z" fill="#1778EA" fill-opacity="0.1"/>
    <path d="M44.3303 15.8151C41.7907 15.814 37.4162 15.7739 34.9112 15.5336C32.1816 15.2717 30.0349 13.0937 29.7675 10.305C29.5462 7.9976 29.5022 4.14272 29.5002 1.58582C29.6064 1.59522 29.7114 1.61593 29.8134 1.64764C30.9598 2.00415 34.041 3.28029 38.3518 7.48436C42.414 11.446 43.8161 14.3485 44.2745 15.6197C44.2975 15.6836 44.3162 15.7489 44.3303 15.8151Z" fill="#0017FC"/>
    <path fill-rule="evenodd" clip-rule="evenodd" d="M20 34.9998C20 36.1044 20.8954 36.9998 22 36.9998H33C34.1046 36.9998 35 36.1044 35 34.9998C35 33.8952 34.1046 32.9998 33 32.9998H22C20.8954 32.9998 20 33.8952 20 34.9998ZM22 27.9998C20.8954 27.9998 20 27.1044 20 25.9998C20 24.8952 20.8954 23.9998 22 23.9998H29C30.1046 23.9998 31 24.8952 31 25.9998C31 27.1044 30.1046 27.9998 29 27.9998H22ZM13 34.9998C13 36.1044 13.8954 36.9998 15 36.9998H16C17.1046 36.9998 18 36.1044 18 34.9998C18 33.8952 17.1046 32.9998 16 32.9998H15C13.8954 32.9998 13 33.8952 13 34.9998ZM15 27.9998C13.8954 27.9998 13 27.1044 13 25.9998C13 24.8952 13.8954 23.9998 15 23.9998H16C17.1046 23.9998 18 24.8952 18 25.9998C18 27.1044 17.1046 27.9998 16 27.9998H15Z" fill="#0017FC"/>
</svg>
