<svg width="52" height="51" viewBox="0 0 52 51" fill="none" xmlns="http://www.w3.org/2000/svg">
    <path fill-rule="evenodd" clip-rule="evenodd" d="M26.0005 5.26135C24.8107 5.26135 23.8344 5.36289 23.1171 5.47566C22.8135 5.5234 22.4879 5.74231 22.2951 6.18864C21.7241 7.51036 21.0137 9.35807 20.6982 10.9354C20.4702 12.0753 19.3616 12.8144 18.2218 12.5865C17.082 12.3584 16.3429 11.2497 16.5708 10.11C16.9757 8.08561 17.8309 5.90887 18.431 4.51959C19.1235 2.9163 20.5615 1.61669 22.4633 1.31764C23.3759 1.17416 24.5715 1.05225 26.0005 1.05225C27.4295 1.05225 28.6251 1.17416 29.5375 1.31764C31.4395 1.61669 32.8773 2.9163 33.5699 4.51959C34.1699 5.90888 35.0252 8.08562 35.43 10.11C35.658 11.2497 34.9188 12.3584 33.7791 12.5865C32.6394 12.8144 31.5306 12.0753 31.3027 10.9354C30.9872 9.35807 30.2767 7.51036 29.7058 6.18864C29.5131 5.74231 29.1874 5.5234 28.8837 5.47566C28.1666 5.36289 27.1903 5.26135 26.0005 5.26135Z" fill="#0017FC"/>
    <path d="M25.9999 8.94434C17.0892 8.94434 11.5195 9.50621 8.27704 10.0238C5.26686 10.5043 3.22582 12.9397 2.93599 15.8404C2.64509 18.7521 2.32373 23.2542 2.32373 28.9376C2.32373 34.6209 2.64509 39.1231 2.93599 42.0347C3.22582 44.9354 5.26685 47.3708 8.27704 47.8514C11.5195 48.3689 17.0892 48.9308 25.9999 48.9308C34.9107 48.9308 40.4804 48.3689 43.7228 47.8514C46.733 47.3708 48.774 44.9354 49.0639 42.0347C49.3548 39.1231 49.6761 34.6209 49.6761 28.9376C49.6761 23.2542 49.3548 18.7521 49.0639 15.8404C48.774 12.9397 46.733 10.5043 43.7228 10.0238C40.4804 9.50621 34.9107 8.94434 25.9999 8.94434Z" fill="#E2EDF9"/>
    <path fill-rule="evenodd" clip-rule="evenodd" d="M23.5125 24.7085C24.3842 24.1922 25.7981 23.3716 26.9381 22.7942C27.7058 22.4054 28.6435 22.7031 29.0462 23.4635C29.449 24.224 29.1684 25.1669 28.4154 25.5834C28.1629 25.7232 27.9027 25.8632 27.6386 26.0053C26.6841 26.5188 25.6791 27.0597 24.8096 27.708C23.6483 28.574 23.2643 29.2507 23.2643 29.7443L23.2611 32.0924C23.2602 32.6742 23.7316 33.1461 24.3133 33.1461H25.4745C26.0554 33.1461 26.5263 32.6752 26.5263 32.0944C26.5263 31.513 26.846 30.9787 27.3582 30.7037C29.3303 29.6451 30.855 28.7801 31.9136 27.7523C32.8907 26.8037 33.4389 25.7453 33.4389 24.2023C33.4389 22.6596 32.9719 21.2108 32.071 20.1727C31.2019 19.1712 29.8129 18.4148 27.6514 18.4148C25.868 18.4148 24.2349 18.9462 22.9935 19.7501C21.7322 20.567 20.9893 21.5835 20.7644 22.4813C20.5474 23.3481 20.7181 24.0304 21.013 24.4531C21.292 24.8533 21.7589 25.1405 22.4617 25.1265C22.684 25.1221 22.9918 25.0169 23.5125 24.7085ZM24.9476 41.5649C26.4004 41.5649 27.5782 40.3871 27.5782 38.9342C27.5782 37.4813 26.4004 36.3035 24.9476 36.3035C23.4947 36.3035 22.3169 37.4813 22.3169 38.9342C22.3169 40.3871 23.4947 41.5649 24.9476 41.5649Z" fill="#0017FC"/>
</svg>
